<svg xmlns="http://www.w3.org/2000/svg" width="390" height="111" fill="none" viewBox="0 0 390 111"><g filter="url(#filter0_d_88_658)"><path fill="#c32424" d="M25.5327 57.9284C13.1168 58.7274 3.33761 50.492 0 44V0H390V57.9284C384.994 68.2489 371.777 84.6953 358.96 67.916C342.94 46.9419 323.18 50.5794 315.404 55.9308C301.5 65.5 302.626 88.6149 287 92C274.325 94.7458 265.889 66.3659 257 58C240 42 210.034 48.7276 202 62.5C191.5 80.5 182 81 170.719 70.4129C161.015 61.3062 147.689 51.9358 139.178 53.4339C130.668 54.9321 127.664 75.9061 119.653 86.3932C111.643 96.8802 93.5 90.5 87.6123 72.4104C83.0008 58.2419 75.7581 51.3773 69.0886 47.9407C59.5 43 41.0526 56.9296 25.5327 57.9284Z"/></g><defs><filter id="filter0_d_88_658" width="418" height="120.186" x="-14" y="-10" color-interpolation-filters="sRGB" filterUnits="userSpaceOnUse"><feFlood flood-opacity="0" result="BackgroundImageFix"/><feColorMatrix in="SourceAlpha" result="hardAlpha" type="matrix" values="0 0 0 0 0 0 0 0 0 0 0 0 0 0 0 0 0 0 127 0"/><feOffset dy="4"/><feGaussianBlur stdDeviation="7"/><feComposite in2="hardAlpha" operator="out"/><feColorMatrix type="matrix" values="0 0 0 0 0.722493 0 0 0 0 0.464977 0 0 0 0 0.39375 0 0 0 0.24 0"/><feBlend in2="BackgroundImageFix" mode="normal" result="effect1_dropShadow_88_658"/><feBlend in="SourceGraphic" in2="effect1_dropShadow_88_658" mode="normal" result="shape"/></filter></defs></svg>